<svg width="44" height="44" viewBox="0 0 44 44" fill="none" xmlns="http://www.w3.org/2000/svg">
<path d="M22 3.66675C11.88 3.66675 3.66663 11.8801 3.66663 22.0001C3.66663 32.1201 11.88 40.3334 22 40.3334C32.12 40.3334 40.3333 32.1201 40.3333 22.0001C40.3333 11.8801 32.12 3.66675 22 3.66675ZM22 11.0001C25.5383 11.0001 28.4166 13.8784 28.4166 17.4167C28.4166 20.9551 25.5383 23.8334 22 23.8334C18.4616 23.8334 15.5833 20.9551 15.5833 17.4167C15.5833 13.8784 18.4616 11.0001 22 11.0001ZM22 36.6667C18.2783 36.6667 13.8783 35.1634 10.7433 31.3867C13.955 28.8681 17.9185 27.4994 22 27.4994C26.0814 27.4994 30.0449 28.8681 33.2566 31.3867C30.1216 35.1634 25.7216 36.6667 22 36.6667Z" fill="#519A66"/>
</svg>
