<svg width="31" height="30" viewBox="0 0 31 30" fill="none" xmlns="http://www.w3.org/2000/svg">
<g clip-path="url(#clip0_57_25)">
<mask id="mask0_57_25" style="mask-type:luminance" maskUnits="userSpaceOnUse" x="0" y="0" width="31" height="30">
<path d="M31 0H0V30H31V0Z" fill="white"/>
</mask>
<g mask="url(#mask0_57_25)">
<path d="M20.4648 24.375C20.4648 23.8573 20.031 23.4375 19.4961 23.4375C18.9611 23.4375 18.5273 23.8573 18.5273 24.375H19.4961H20.4648ZM5.69141 24.375C5.69141 23.8573 5.25768 23.4375 4.72266 23.4375C4.18763 23.4375 3.75391 23.8573 3.75391 24.375H4.72266H5.69141ZM20.3438 18.75C19.8088 18.75 19.375 19.1698 19.375 19.6875C19.375 20.2052 19.8088 20.625 20.3438 20.625V19.6875V18.75ZM3.875 20.625C4.41002 20.625 4.84375 20.2052 4.84375 19.6875C4.84375 19.1698 4.41002 18.75 3.875 18.75V19.6875V20.625ZM2.90625 16.1719C2.90625 16.6896 3.33998 17.1094 3.875 17.1094C4.41002 17.1094 4.84375 16.6896 4.84375 16.1719H3.875H2.90625ZM21.3125 16.159C21.3125 15.6412 20.8787 15.2215 20.3438 15.2215C19.8088 15.2215 19.375 15.6412 19.375 16.159H20.3438H21.3125ZM15.5541 6.45421C15.4922 5.9399 15.0113 5.57148 14.4799 5.63129C13.9484 5.6911 13.5677 6.15652 13.6295 6.67081L14.5918 6.56251L15.5541 6.45421ZM14.08 10.4191C14.1418 10.9334 14.6227 11.3018 15.1542 11.242C15.6856 11.1822 16.0663 10.7167 16.0045 10.2024L15.0423 10.3107L14.08 10.4191ZM15.5 27.1875C14.965 27.1875 14.5312 27.6073 14.5312 28.125C14.5312 28.6427 14.965 29.0625 15.5 29.0625V28.125V27.1875ZM25.8668 26.3901L24.9035 26.2915L24.9019 26.3057L24.9008 26.32L25.8668 26.3901ZM28.9966 6.66108C29.0528 6.14619 28.6671 5.68465 28.135 5.6302C27.603 5.57577 27.1262 5.94903 27.0698 6.46394L28.0333 6.56251L28.9966 6.66108ZM21.3414 6.33513C21.2118 6.83744 21.5272 7.34645 22.0462 7.47202C22.5653 7.5976 23.0913 7.2922 23.2211 6.78989L22.2812 6.56251L21.3414 6.33513ZM23.25 2.81251L22.9379 1.92504C22.6263 2.02764 22.3899 2.27622 22.3101 2.58513L23.25 2.81251ZM26.4079 2.76249C26.9144 2.59563 27.1853 2.06304 27.0128 1.57289C26.8404 1.08275 26.2899 0.820669 25.7835 0.987527L26.0958 1.87501L26.4079 2.76249ZM13.5625 5.62501C13.0275 5.62501 12.5938 6.04475 12.5938 6.56251C12.5938 7.08027 13.0275 7.50001 13.5625 7.50001V6.56251V5.62501ZM29.0625 7.50001C29.5974 7.50001 30.0312 7.08027 30.0312 6.56251C30.0312 6.04475 29.5974 5.62501 29.0625 5.62501V6.56251V7.50001ZM19.4961 24.375H18.5273C18.5273 25.236 18.2671 25.9494 17.857 26.4291C17.4622 26.8909 16.8889 27.1875 16.1055 27.1875V28.125V29.0625C17.4623 29.0625 18.5844 28.5197 19.3498 27.6244C20.0998 26.7469 20.4648 25.5853 20.4648 24.375H19.4961ZM16.1055 28.125V27.1875H8.11328V28.125V29.0625H16.1055V28.125ZM8.11328 28.125V27.1875C7.32981 27.1875 6.75657 26.8909 6.36176 26.4291C5.95161 25.9494 5.69141 25.236 5.69141 24.375H4.72266H3.75391C3.75391 25.5853 4.11883 26.7469 4.86892 27.6244C5.63435 28.5197 6.75641 29.0625 8.11328 29.0625V28.125ZM20.3438 19.6875V20.625C20.688 20.625 21.3125 21.0488 21.3125 22.0313H22.2812H23.25C23.25 20.4251 22.1392 18.75 20.3438 18.75V19.6875ZM22.2812 22.0313H21.3125C21.3125 23.0138 20.688 23.4375 20.3438 23.4375V24.375V25.3125C22.1392 25.3125 23.25 23.6374 23.25 22.0313H22.2812ZM20.3438 24.375V23.4375H3.875V24.375V25.3125H20.3438V24.375ZM3.875 24.375V23.4375C3.53069 23.4375 2.90625 23.0138 2.90625 22.0313H1.9375H0.96875C0.96875 23.6374 2.0796 25.3125 3.875 25.3125V24.375ZM1.9375 22.0313H2.90625C2.90625 21.0488 3.53069 20.625 3.875 20.625V19.6875V18.75C2.0796 18.75 0.96875 20.4251 0.96875 22.0313H1.9375ZM20.8281 19.6875V18.75H10.8567V19.6875V20.625H20.8281V19.6875ZM10.8567 19.6875V18.75C10.4718 18.7502 10.1022 18.8981 9.82995 19.1614L10.5146 19.8246L11.1992 20.4879C11.1084 20.5757 10.9849 20.625 10.8567 20.625V19.6875ZM10.5146 19.8246L9.82995 19.1614L8.20508 20.7338L8.8901 21.3968L9.57511 22.0596L11.1992 20.4879L10.5146 19.8246ZM8.8901 21.3968L8.20508 20.7338C8.27256 20.6683 8.35233 20.6169 8.44053 20.5815L8.8115 21.4476L9.18247 22.3136C9.32947 22.2546 9.46263 22.1685 9.57511 22.0596L8.8901 21.3968ZM8.8115 21.4476L8.44053 20.5815C8.52874 20.5461 8.62327 20.5279 8.71875 20.5279V21.4654V22.4029C8.87788 22.4029 9.03545 22.3725 9.18247 22.3136L8.8115 21.4476ZM8.71875 21.4654V20.5279C8.81423 20.5279 8.90876 20.5461 8.99697 20.5815L8.626 21.4476L8.25503 22.3136C8.40205 22.3725 8.55962 22.4029 8.71875 22.4029V21.4654ZM8.626 21.4476L8.99697 20.5815C9.08517 20.6169 9.1653 20.6687 9.23279 20.7341L8.5474 21.3968L7.86201 22.0592C7.97448 22.1681 8.10803 22.2546 8.25503 22.3136L8.626 21.4476ZM8.5474 21.3968L9.23279 20.7341L7.60794 19.1618L6.92292 19.8246L6.23792 20.4876L7.86201 22.0592L8.5474 21.3968ZM6.92292 19.8246L7.60794 19.1618C7.33565 18.8985 6.96617 18.7502 6.58128 18.75L6.58083 19.6875L6.58039 20.625C6.45211 20.625 6.32869 20.5753 6.23792 20.4876L6.92292 19.8246ZM6.58083 19.6875L6.58128 18.75H3.39062V19.6875V20.625H6.58039L6.58083 19.6875ZM3.39062 19.6875V18.75C3.26217 18.75 3.13896 18.7006 3.04811 18.6127L2.36311 19.2756L1.6781 19.9386C2.1323 20.3781 2.7483 20.625 3.39062 20.625V19.6875ZM2.36311 19.2756L3.04811 18.6127C2.95728 18.5248 2.90625 18.4056 2.90625 18.2813H1.9375H0.96875C0.96875 18.9028 1.22391 19.4991 1.6781 19.9386L2.36311 19.2756ZM1.9375 18.2813H2.90625C2.90625 18.1569 2.95728 18.0377 3.04811 17.9498L2.36311 17.2869L1.6781 16.624C1.22391 17.0635 0.96875 17.6597 0.96875 18.2813H1.9375ZM2.36311 17.2869L3.04811 17.9498C3.13896 17.8619 3.26217 17.8125 3.39062 17.8125V16.875V15.9375C2.7483 15.9375 2.1323 16.1845 1.6781 16.624L2.36311 17.2869ZM3.39062 16.875V17.8125H20.8281V16.875V15.9375H3.39062V16.875ZM20.8281 16.875V17.8125C20.9566 17.8125 21.0798 17.8619 21.1707 17.9498L21.8556 17.2869L22.5407 16.624C22.0865 16.1845 21.4704 15.9375 20.8281 15.9375V16.875ZM21.8556 17.2869L21.1707 17.9498C21.2615 18.0377 21.3125 18.1569 21.3125 18.2813H22.2812H23.25C23.25 17.6597 22.9948 17.0635 22.5407 16.624L21.8556 17.2869ZM22.2812 18.2813H21.3125C21.3125 18.4056 21.2615 18.5248 21.1707 18.6127L21.8556 19.2756L22.5407 19.9386C22.9948 19.4991 23.25 18.9028 23.25 18.2813H22.2812ZM21.8556 19.2756L21.1707 18.6127C21.0798 18.7006 20.9566 18.75 20.8281 18.75V19.6875V20.625C21.4704 20.625 22.0865 20.3781 22.5407 19.9386L21.8556 19.2756ZM3.875 16.1719H4.84375V16.159H3.875H2.90625V16.1719H3.875ZM3.875 16.159H4.84375C4.84375 14.834 5.38925 13.8814 6.2476 13.2366C7.13374 12.5709 8.42078 12.1875 9.92969 12.1875V11.25V10.3125C8.10851 10.3125 6.36821 10.7723 5.05953 11.7555C3.72306 12.7595 2.90625 14.2613 2.90625 16.159H3.875ZM9.92969 11.25V12.1875H14.2891V11.25V10.3125H9.92969V11.25ZM14.2891 11.25V12.1875C15.7964 12.1875 17.0832 12.5733 17.9697 13.2419C18.8291 13.8901 19.375 14.8465 19.375 16.1719H20.3438H21.3125C21.3125 14.2746 20.496 12.7701 19.1607 11.763C17.8524 10.7763 16.1118 10.3125 14.2891 10.3125V11.25ZM20.3438 16.1719H21.3125V16.159H20.3438H19.375V16.1719H20.3438ZM14.5918 6.56251L13.6295 6.67081L14.08 10.4191L15.0423 10.3107L16.0045 10.2024L15.5541 6.45421L14.5918 6.56251ZM15.5 28.125V29.0625H23.9347V28.125V27.1875H15.5V28.125ZM23.9347 28.125V29.0625C24.6681 29.0625 25.3741 28.7942 25.9115 28.3116L25.2526 27.6244L24.5937 26.9372C24.4144 27.0981 24.1792 27.1875 23.9347 27.1875V28.125ZM25.2526 27.6244L25.9115 28.3116C26.449 27.8289 26.7782 27.1676 26.8328 26.46L25.8668 26.3901L24.9008 26.32C24.8825 26.5558 24.7729 26.7763 24.5937 26.9372L25.2526 27.6244ZM25.8668 26.3901L26.8303 26.4887L28.9966 6.66108L28.0333 6.56251L27.0698 6.46394L24.9035 26.2915L25.8668 26.3901ZM22.2812 6.56251L23.2211 6.78989L24.1899 3.03989L23.25 2.81251L22.3101 2.58513L21.3414 6.33513L22.2812 6.56251ZM23.25 2.81251L23.5621 3.69999L26.4079 2.76249L26.0958 1.87501L25.7835 0.987527L22.9379 1.92504L23.25 2.81251ZM13.5625 6.56251V7.50001H29.0625V6.56251V5.62501H13.5625V6.56251Z" fill="#3D7D0B"/>
</g>
</g>
<defs>
<clipPath id="clip0_57_25">
<rect width="31" height="30" fill="white"/>
</clipPath>
</defs>
</svg>
